<svg id="Layer_1" data-name="Layer 1" xmlns="http://www.w3.org/2000/svg" viewBox="0 0 135.55 374">
  <title>beer</title>
  <path d="M305.5,315.5" transform="translate(-168.23 -60)" fill="none" stroke="#000" stroke-miterlimit="10"/>
  <path d="M319.5,316.5" transform="translate(-168.23 -60)" fill="none" stroke="#000" stroke-miterlimit="10"/>
  <path d="M359.5,359.5" transform="translate(-168.23 -60)" fill="none" stroke="#000" stroke-miterlimit="10"/>
  <path d="M305.5,315.5" transform="translate(-168.23 -60)" fill="none" stroke="#000" stroke-miterlimit="10"/>
  <path d="M313.5,335.5" transform="translate(-168.23 -60)" fill="none" stroke="#000" stroke-miterlimit="10"/>
  <path d="M321.5,325.5" transform="translate(-168.23 -60)" fill="none" stroke="#000" stroke-miterlimit="10"/>
  <path d="M299.2,407a1,1,0,0,1,1,.89l2.57,24a1,1,0,0,1-1,1.11H170.23a1,1,0,0,1-1-1.11l2.57-24a1,1,0,0,1,1-.89H299.2m0-1H172.8a2,2,0,0,0-2,1.79l-2.57,24a2,2,0,0,0,2,2.21H301.77a2,2,0,0,0,2-2.21l-2.57-24a2,2,0,0,0-2-1.79Z" transform="translate(-168.23 -60)"/>
  <path d="M301,81.5c0-8.84-10.54-16-23.55-16-7.6,0-14.34,2.46-18.64,6.25l-.56,0C252,65,239.88,60.5,225.95,60.5s-26.16,4.57-32.38,11.29C180.71,74.88,171.5,83.21,171.5,93c0,12.43,14.82,22.5,33.11,22.5,9.88,0,18.75-2.95,24.82-7.61,5.94,4.66,14.7,7.61,24.48,7.61,16.43,0,30-8.32,32.09-19.1C294.77,94.07,301,88.29,301,81.5Z" transform="translate(-168.23 -60)" fill="#fff" stroke="#000" stroke-miterlimit="10"/>
  <path d="M171.5,109.78c21.9-2.86,61.07-6.48,104.89-1.94,9.05.94,17.25,2.11,24.61,3.39" transform="translate(-168.23 -60)" fill="none" stroke="#000" stroke-miterlimit="10"/>
  <path d="M294.12,81c3.24,0,5.88,4,5.88,9V205.07c-.1.81-.25,2-.44,3.49-4.46,34.93-8.07,54-10.7,68s-4.4,23.31-5.36,38.9c-1.88,30.65,1.17,56,9.07,75.44a136.38,136.38,0,0,0,5.93,12.65,1,1,0,0,1,0,1,1,1,0,0,1-.86.48H174a1,1,0,0,1-.82-.44,1,1,0,0,1-.1-.95c12.45-31.12,17.32-61.13,14.45-89.22-.79-7.7-2.27-16.51-4.14-27.65-3-17.86-7.11-42.32-11-78.37-.14-1.25-.25-2.29-.32-3V90c0-5,2.64-9,5.88-9H294.12m0-1H177.88c-3.8,0-6.88,4.48-6.88,10V205.43c.08.71.19,1.77.33,3.05,6.35,58.39,13.12,85.94,15.17,106,2.11,20.68,1,50.43-14.38,88.75A2,2,0,0,0,174,406H297.62a2,2,0,0,0,1.76-2.95,135.08,135.08,0,0,1-5.88-12.55c-3.65-9-11.68-31.46-9-75,1.93-31.46,7.23-37.78,16-106.81.19-1.51.35-2.74.45-3.56V90c0-5.52-3.08-10-6.88-10Z" transform="translate(-168.23 -60)"/>
</svg>
