<svg id="Layer_1" data-name="Layer 1" xmlns="http://www.w3.org/2000/svg" viewBox="0 0 26.32 16.36">
  <title>before_coffee</title>
  <ellipse cx="9.55" cy="1.11" rx="9.5" ry="1.06" fill="none" stroke="#000" stroke-miterlimit="10" stroke-width="0.1"/>
  <path d="M11.15,12.8H11V25.47a1.24,1.24,0,0,0,.49,1l.57,1.14a1.53,1.53,0,0,0,1.19.42h14.5a1.53,1.53,0,0,0,1.19-.42l.57-1.14a1.24,1.24,0,0,0,.49-1V12.8h-.24" transform="translate(-10.95 -11.69)" fill="none" stroke="#000" stroke-miterlimit="10" stroke-width="0.1"/>
  <path d="M30,14c3.71,0,7.22,2.46,7.22,5.5S33.71,25,30,25" transform="translate(-10.95 -11.69)" fill="none" stroke="#000" stroke-miterlimit="10" stroke-width="0.1"/>
  <path d="M30,16c2.76,0,5,1.74,5,3.89s-2.24,3.89-5,3.89" transform="translate(-10.95 -11.69)" fill="none" stroke="#000" stroke-miterlimit="10" stroke-width="0.1"/>
</svg>
