<?xml version="1.0" encoding="utf-8"?>
<!DOCTYPE svg PUBLIC "-//W3C//DTD SVG 1.1//EN" "http://www.w3.org/Graphics/SVG/1.1/DTD/svg11.dtd">
<svg version="1.1" id="coke-bottle" xmlns="http://www.w3.org/2000/svg" xmlns:xlink="http://www.w3.org/1999/xlink" x="0px" y="0px" width="728px" height="2141px" viewBox="0 0 728 2141" style="enable-background:new 0 0 728 2141;" xml:space="preserve">
	<rect x="87" y="848" width="563" height="361"/>
	<polygon points="621.4,1687.54 613.71,1614.51 622.57,1464.48 669.47,1230 69.76,1230 113.97,1470.3 123.2,1624.83 116.06,1689.75 
		67.85,1864 69.76,1864 90.89,1994.9 646.38,1995.96 669.47,1860.97 669.48,1860.75 "/>
	<polygon points="625.03,2100.66 110.48,2100.28 90.91,2014 646.42,2014 "/>
	<polygon points="574.45,564 502.86,300 502.48,300 479.62,121 255.62,121 239.68,300 239.42,300 167.81,565 167.02,565 72.37,828 
		664.96,828 "/>
	<polygon points="498.66,104 238.66,104 284.44,29 452.89,29 "/>
</svg>
