<svg xmlns='http://www.w3.org/2000/svg'>
  <symbol id="beer" data-name="Layer 1" xmlns="http://www.w3.org/2000/svg" viewBox="0 0 135.55 374">
    <title>beer</title>
    <path d="M305.5,315.5" transform="translate(-168.23 -60)" fill="none" stroke="#000" stroke-miterlimit="10"/>
    <path d="M319.5,316.5" transform="translate(-168.23 -60)" fill="none" stroke="#000" stroke-miterlimit="10"/>
    <path d="M359.5,359.5" transform="translate(-168.23 -60)" fill="none" stroke="#000" stroke-miterlimit="10"/>
    <path d="M305.5,315.5" transform="translate(-168.23 -60)" fill="none" stroke="#000" stroke-miterlimit="10"/>
    <path d="M313.5,335.5" transform="translate(-168.23 -60)" fill="none" stroke="#000" stroke-miterlimit="10"/>
    <path d="M321.5,325.5" transform="translate(-168.23 -60)" fill="none" stroke="#000" stroke-miterlimit="10"/>
    <path d="M299.2,407a1,1,0,0,1,1,.89l2.57,24a1,1,0,0,1-1,1.11H170.23a1,1,0,0,1-1-1.11l2.57-24a1,1,0,0,1,1-.89H299.2m0-1H172.8a2,2,0,0,0-2,1.79l-2.57,24a2,2,0,0,0,2,2.21H301.77a2,2,0,0,0,2-2.21l-2.57-24a2,2,0,0,0-2-1.79Z" transform="translate(-168.23 -60)"/>
    <path d="M301,81.5c0-8.84-10.54-16-23.55-16-7.6,0-14.34,2.46-18.64,6.25l-.56,0C252,65,239.88,60.5,225.95,60.5s-26.16,4.57-32.38,11.29C180.71,74.88,171.5,83.21,171.5,93c0,12.43,14.82,22.5,33.11,22.5,9.88,0,18.75-2.95,24.82-7.61,5.94,4.66,14.7,7.61,24.48,7.61,16.43,0,30-8.32,32.09-19.1C294.77,94.07,301,88.29,301,81.5Z" transform="translate(-168.23 -60)" fill="#fff" stroke="#000" stroke-miterlimit="10"/>
    <path d="M171.5,109.78c21.9-2.86,61.07-6.48,104.89-1.94,9.05.94,17.25,2.11,24.61,3.39" transform="translate(-168.23 -60)" fill="none" stroke="#000" stroke-miterlimit="10"/>
    <path d="M294.12,81c3.24,0,5.88,4,5.88,9V205.07c-.1.81-.25,2-.44,3.49-4.46,34.93-8.07,54-10.7,68s-4.4,23.31-5.36,38.9c-1.88,30.65,1.17,56,9.07,75.44a136.38,136.38,0,0,0,5.93,12.65,1,1,0,0,1,0,1,1,1,0,0,1-.86.48H174a1,1,0,0,1-.82-.44,1,1,0,0,1-.1-.95c12.45-31.12,17.32-61.13,14.45-89.22-.79-7.7-2.27-16.51-4.14-27.65-3-17.86-7.11-42.32-11-78.37-.14-1.25-.25-2.29-.32-3V90c0-5,2.64-9,5.88-9H294.12m0-1H177.88c-3.8,0-6.88,4.48-6.88,10V205.43c.08.71.19,1.77.33,3.05,6.35,58.39,13.12,85.94,15.17,106,2.11,20.68,1,50.43-14.38,88.75A2,2,0,0,0,174,406H297.62a2,2,0,0,0,1.76-2.95,135.08,135.08,0,0,1-5.88-12.55c-3.65-9-11.68-31.46-9-75,1.93-31.46,7.23-37.78,16-106.81.19-1.51.35-2.74.45-3.56V90c0-5.52-3.08-10-6.88-10Z" transform="translate(-168.23 -60)"/>
  </symbol>
  <symbol id="before_coffee" data-name="Layer 1" xmlns="http://www.w3.org/2000/svg" viewBox="0 0 26.32 16.36">

    <title>before_coffee</title>
    <ellipse cx="9.55" cy="1.11" rx="9.5" ry="1.06" fill="none" stroke="#000" stroke-miterlimit="10" stroke-width="0.1"/>
    <path d="M11.15,12.8H11V25.47a1.24,1.24,0,0,0,.49,1l.57,1.14a1.53,1.53,0,0,0,1.19.42h14.5a1.53,1.53,0,0,0,1.19-.42l.57-1.14a1.24,1.24,0,0,0,.49-1V12.8h-.24" transform="translate(-10.95 -11.69)" fill="none" stroke="#000" stroke-miterlimit="10" stroke-width="0.1"/>
    <path d="M30,14c3.71,0,7.22,2.46,7.22,5.5S33.71,25,30,25" transform="translate(-10.95 -11.69)" fill="none" stroke="#000" stroke-miterlimit="10" stroke-width="0.1"/>
    <path d="M30,16c2.76,0,5,1.74,5,3.89s-2.24,3.89-5,3.89" transform="translate(-10.95 -11.69)" fill="none" stroke="#000" stroke-miterlimit="10" stroke-width="0.1"/>


  </symbol>
  <symbol id="coffee_icon2" data-name="Layer 1" xmlns="http://www.w3.org/2000/svg" viewBox="0 0 193.43 298.5">
    <title>coffee_icon2</title>
    <g>
      <polygon points="168.71 284 26.71 284 13.71 36 181.71 36 168.71 284" fill="none" stroke="#000" stroke-miterlimit="10"/>
      <polygon points="165.33 298 30.09 298 26.71 284 168.71 285.33 165.33 298" fill="none" stroke="#000" stroke-miterlimit="10"/>
      <polygon points="192.71 35 0.71 35 4.71 24 188.71 24 192.71 35" fill="none" stroke="#000" stroke-miterlimit="10"/>
      <polygon points="183.71 24 8.71 23 10.71 12 181.71 12 183.71 24" fill="none" stroke="#000" stroke-miterlimit="10"/>
      <polygon points="172.71 223 23.71 228 9.71 97 185.71 97 172.71 223" fill="none" stroke="#000" stroke-miterlimit="10"/>
    </g>
    <polygon points="40.21 12.5 10.21 12.5 12.21 0.5 40.21 0.5 40.21 12.5" fill="none" stroke="#000" stroke-miterlimit="10"/>

  </symbol>
  <symbol id="redsolo_cup" data-name="Layer 1" xmlns="http://www.w3.org/2000/svg" viewBox="0 0 197.4 275.5">
    <title>redsolocup</title>
    <path d="M217,379v8l-.33,0H91.93a4,4,0,0,1-2.77-.86.65.65,0,0,1-.22-.41L89,379H217m1-1H88l-.11,7.71c0,1.26,1.77,2.29,4,2.29H216.67a1.71,1.71,0,0,0,1.33-.43h0V378Z" transform="translate(-55.3 -112.5)"/>
    <path d="M226.16,303a24.11,24.11,0,0,1,3.1.13l0,.08c-.05.15-.11.32-.17.5l0,.08v.08l-10.4,73.65c-.53.21-2.27.54-8,.54-1.33,0-2.64,0-3.83,0l-2.57,0H102.9c-5.46,0-14.59-.65-16.28-1.47l-9.45-72.66v-.08l0-.08a4.39,4.39,0,0,1-.12-.45,16.75,16.75,0,0,1,4-.26H226.16m0-1H81c-5.08,0-5.3.4-4.81,2l9.5,73c.43,1.39,12.79,2,17.23,2H204.25c1.6,0,4,.05,6.4.05,4.28,0,8.66-.16,8.93-1.05L230,304c.49-1.6,1.22-2-3.86-2Z" transform="translate(-55.3 -112.5)"/>
    <path d="M240,176c2.76,0,3.71.17,4,.32a6.15,6.15,0,0,1-.2,1c-.06.24-.13.51-.19.8v.11L231.23,301c-.31.28-1.87,1-9.61,1-1.57,0-3.14,0-4.53,0-1.15,0-2.19,0-3,0H93.89l-2.5,0-4,0c-9.8,0-11.93-.76-12.38-1.15L63.2,178.23v-.12c-.08-.37-.29-1.34-.12-1.55.3-.37,1.93-.57,4.85-.57H240m0-1H67.91c-6,0-6.28.67-5.7,3.32L74,301.15c.35,1.62,7.37,1.86,13.36,1.86,2.57,0,4.95,0,6.53,0H214c1.9,0,4.72.08,7.58.08,5.07,0,10.26-.27,10.59-1.75l12.38-123c.58-2.65,1.45-3.32-4.58-3.32Z" transform="translate(-55.3 -112.5)"/>
    <path d="M240,155c.9,0,2.44,0,3.51,0l-2.41,19.07c-.77,0-2.47.08-6.17.08-4.21,0-9.61-.05-13.95-.09-3,0-5.57-.05-7-.05H93.89l-7,.05c-4.52,0-10.14.09-14.55.09-3.9,0-5.65,0-6.45-.08l-2.6-19c1.23-.06,3.41-.06,4.62-.06H240m0-1H67.91c-6,0-6.28.11-5.7.55L65,175a65.15,65.15,0,0,0,7.33.18c7.39,0,18.17-.14,21.56-.14H214c3.38,0,13.78.14,20.9.14A60.59,60.59,0,0,0,242,175l2.59-20.45c.58-.44,1.45-.55-4.58-.55Z" transform="translate(-55.3 -112.5)"/>
    <path d="M67.91,135H240c.92,0,2.5,0,3.56,0L243,154.1c-.86,0-2.7.08-6.67.08-4.63,0-10.52-.05-15.25-.09L214,154H93.89l-7.12,0c-4.91,0-11,.09-15.86.09-4.16,0-6.07,0-6.95-.08l-.68-18.87c1.35-.15,3.82-.21,4.59-.23h0M240,134H67.91c.07,0-3.5.06-5,.28a.7.7,0,0,0-.59.79L63,155a75.63,75.63,0,0,0,7.91.18c8,0,19.59-.14,23-.14H214c3.38,0,14.61.14,22.32.14A70.71,70.71,0,0,0,244,155l.59-20.45c.58-.44,1.45-.55-4.58-.55Z" transform="translate(-55.3 -112.5)"/>
    <path d="M245,129v3.7a1.38,1.38,0,0,1-1.36,1.38c-4.21,0-14.27.07-28.33.07h-123c-8.66,0-24.07,0-30-.07A1.38,1.38,0,0,1,61,132.68v-3.6c1.43-.05,3.93-.07,4.71-.08H241.9l3.1,0m1-1c-.62,0-1.83,0-4.11,0H65.77c.07,0-3.58,0-5.16.09-.39,0-.65.14-.6.27v4.31a2.38,2.38,0,0,0,2.35,2.38c6.68.07,25.56.07,30,.07h123c4.42,0,21.94,0,28.34-.07a2.38,2.38,0,0,0,2.35-2.38V128h0v0Z" transform="translate(-55.3 -112.5)"/>
    <path d="M247,120v5.64c0,1.38-.74,2.35-1.4,2.36-4.27.07-14.49.1-28.78.1H91.87c-8.8,0-24.45,0-30.47-.11-.66,0-1.4-1-1.4-2.36v-5.5c1.44-.07,4-.1,4.81-.11h179c1.43,0,2.45,0,3.17,0m1-1c-.63,0-1.86.05-4.18.05h-179c.07,0-3.64,0-5.24.13-.39,0-.67.2-.61.38v6.1c0,1.84,1.06,3.34,2.39,3.36,6.79.1,26,.11,30.49.11H216.81c4.49,0,22.29,0,28.79-.1,1.32,0,2.39-1.52,2.39-3.36v-6.61h0V119Z" transform="translate(-55.3 -112.5)"/>
    <path d="M245.27,119.5H62.73c-2.47,0-4.61-.62-5.15-1.49l-1.66-2.69c-.73-1.19,1.77-2.32,5.15-2.32H246.93c3.37,0,5.88,1.13,5.15,2.32L250.42,118C249.88,118.88,247.74,119.5,245.27,119.5Z" transform="translate(-55.3 -112.5)" fill="#fff" stroke="#000" stroke-miterlimit="10"/>
  </symbol>
  
  <symbol id="smoothie" data-name="Layer 1" xmlns="http://www.w3.org/2000/svg" viewBox="0 0 141.43 389.7">
    <title>smoothie</title>
    <path d="M222.56,185.26a111.31,111.31,0,0,0,15.64,8.31s44.75,19.32,94.22.17c5.3-2.05,10.17-4.58,10.17-4.58,2.57-1.33,4.69-2.57,6.26-3.54" transform="translate(-221.96 -59.3)" fill="none" stroke="#000" stroke-miterlimit="10"/>
    <path d="M223.26,192.22a111.31,111.31,0,0,0,15.64,8.31s44.75,19.32,94.22.17c5.3-2.05,10.17-4.58,10.17-4.58,2.57-1.33,4.69-2.57,6.26-3.54" transform="translate(-221.96 -59.3)" fill="none" stroke="#000" stroke-miterlimit="10"/>
    <path d="M284.85,420.78" transform="translate(-221.96 -59.3)" fill="none" stroke="#000" stroke-miterlimit="10"/>
    <path d="M282.89,420.2" transform="translate(-221.96 -59.3)" fill="none" stroke="#000" stroke-miterlimit="10"/>
    <path d="M276.41,419.68" transform="translate(-221.96 -59.3)" fill="none" stroke="#000" stroke-miterlimit="10"/>
    <path d="M300.55,421.68a22.22,22.22,0,0,1,0-26.12H271.64a22.34,22.34,0,0,1,0,26.12" transform="translate(-221.96 -59.3)" fill="none" stroke="#000" stroke-miterlimit="10"/>
    <path d="M295.31,419.63" transform="translate(-221.96 -59.3)" fill="none" stroke="#000" stroke-miterlimit="10"/>
    <path d="M291.68,420.61" transform="translate(-221.96 -59.3)" fill="none" stroke="#000" stroke-miterlimit="10"/>
    <path d="M287,420" transform="translate(-221.96 -59.3)" fill="none" stroke="#000" stroke-miterlimit="10"/>
    <path d="M276.21,404.3c-26,1.9-45.66,11-45.66,21.91,0,12.31,24.95,22.29,55.72,22.29s55.72-10,55.72-22.29c0-10.82-19.29-19.82-44.86-21.84" transform="translate(-221.96 -59.3)" fill="none" stroke="#000" stroke-miterlimit="10"/>
    <path d="M356.5,65.5c-2.89-.88-3.55-6.39-4.43-3.5l-30.26,99.26A141.21,141.21,0,0,0,286.27,157c-35.2,0-63.73,11.23-63.73,25.08a10.41,10.41,0,0,0,.61,3.48h-.61l26.66,200.59a10.45,10.45,0,0,0,10.36,9.07H313a10.45,10.45,0,0,0,10.36-9.07L350,185.56h-.61a10.41,10.41,0,0,0,.61-3.48c0-6.74-6.76-12.85-17.75-17.35l30.34-99.51C363.47,62.32,359.39,66.38,356.5,65.5Z" transform="translate(-221.96 -59.3)" fill="none" stroke="#000" stroke-miterlimit="10"/>
    <path d="M362.23,65.79c1.62-2.23.05-3.07-2.53-5-3.2-2.34-6.92,0-7.7.17" transform="translate(-221.96 -59.3)" fill="none" stroke="#000" stroke-miterlimit="10"/>
    <path d="M236.06,192.15c-.35-3.46-.52-7.45,2-9.88,1.9-1.85,4.76-2.16,7.3-2.9,4.37-1.26,8.16-3.95,12.23-6s8.85-3.42,13.13-1.89a4.36,4.36,0,0,0,1.9.43c2.08-.23,2.09-3.22,3.06-5.08s3.27-2.7,5.38-3a19,19,0,0,1,8.68.86,16.33,16.33,0,0,0,4.76,1.33,12.66,12.66,0,0,0,3.89-.77,30.67,30.67,0,0,1,13.34-1.38c4.46.69,8.81,3,11.19,6.84,2.14,3.44,2.5,7.65,2.8,11.69" transform="translate(-221.96 -59.3)" fill="none" stroke="#000" stroke-miterlimit="10"/>
  </symbol>
  
  <symbol id="tea" data-name="Layer 1" xmlns="http://www.w3.org/2000/svg" viewBox="0 0 210.63 199.24">
    <title>tea</title>
    <path d="M98.71,181.3c-21.16,9.46-42.06,26.79-44.9,51.23-2.95,25.33,16,46,36.7,57.37C113.85,302.74,141.62,307.15,168,305c25.24-2,51.67-10.2,70.65-27.6,8.88-8.14,15.94-18.56,18.44-30.48s-.14-24.12-6.31-34.47a59.6,59.6,0,0,0-5.28-7.46" transform="translate(-53.01 -106.81)" fill="none" stroke="#000" stroke-miterlimit="10"/>
    <path d="M207.67,200.32" transform="translate(-53.01 -106.81)" fill="none" stroke="#000" stroke-miterlimit="10"/>
    <path d="M104.73,200.45c-12.78,10.27-21.38,26.37-19.07,43,2.27,16.33,14.17,29.47,28.07,37.42,16,9.13,35.08,12.28,53.26,10.19,17-2,34-8.62,46.14-20.9S230.87,240.1,225,223.57a45.08,45.08,0,0,0-2.83-6.39" transform="translate(-53.01 -106.81)" fill="none" stroke="#000" stroke-miterlimit="10"/>
    <path d="M219.73,144.13" transform="translate(-53.01 -106.81)" fill="none" stroke="#000" stroke-miterlimit="10"/>
    <path d="M213,177.83c3.77-12.7,7.61-25.37,11.38-38.07a6.08,6.08,0,0,0-.25.61c.11-.17.15-.46.25-.61a3.26,3.26,0,0,0-1.17,0" transform="translate(-53.01 -106.81)" fill="none" stroke="#000" stroke-miterlimit="10"/>
    <path d="M207.14,197.95q2-7,4-13.9" transform="translate(-53.01 -106.81)" fill="none" stroke="#000" stroke-miterlimit="10"/>
    <path d="M195.11,248.8c-.74-16.32,7.26-31.22,10.82-46.77" transform="translate(-53.01 -106.81)" fill="none" stroke="#000" stroke-miterlimit="10"/>
    <path d="M115.34,248.8h79.77" transform="translate(-53.01 -106.81)" fill="none" stroke="#000" stroke-miterlimit="10"/>
    <path d="M99.14,184.61c5.22,18.08,11.81,34.91,16.2,53.94.73,3.66,0,6.59,0,10.25" transform="translate(-53.01 -106.81)" fill="none" stroke="#000" stroke-miterlimit="10"/>
    <path d="M86.85,139.76a3.61,3.61,0,0,0-.78,0C90,153,93.55,166.34,97.58,179.55" transform="translate(-53.01 -106.81)" fill="none" stroke="#000" stroke-miterlimit="10"/>
    <path d="M240.73,198.21c5.35-4.5,11.24-13.14,7.46-20.38-4.09-7.84-16.48-8.65-24-7.85" transform="translate(-53.01 -106.81)" fill="none" stroke="#000" stroke-miterlimit="10"/>
    <path d="M222,209.54c5.92-3.16,12-6.11,17.36-10.21" transform="translate(-53.01 -106.81)" fill="none" stroke="#000" stroke-miterlimit="10"/>
    <path d="M211.94,214.77a15,15,0,0,1,2.86-1.66" transform="translate(-53.01 -106.81)" fill="none" stroke="#000" stroke-miterlimit="10"/>
    <path d="M155.22,120c-38.19,0-69.16,9-69.16,20.12s31,20.12,69.16,20.12,69.16-9,69.16-20.12S193.42,120,155.22,120Zm64.51,24.13M90.36,136.52" transform="translate(-53.01 -106.81)" fill="none" stroke="#000" stroke-miterlimit="10"/>
    <path d="M245.93,203.87c8.43-5.72,14.82-13.52,16.81-23.76,2.81-14.43-10-19.47-21.67-21.82A70.61,70.61,0,0,0,219.62,157" transform="translate(-53.01 -106.81)" fill="none" stroke="#000" stroke-miterlimit="10"/>
    <path d="M198.4,227.94c3.19-2.46,7.66-3.8,11.3-5.43,7.06-3.15,14.11-6.34,21-9.85,4.1-2.09,8.15-4.3,12.06-6.73" transform="translate(-53.01 -106.81)" fill="none" stroke="#000" stroke-miterlimit="10"/>
    <path d="M145.41,140.36c9.73-11.2,16.57-14.46,21.14-15.24,3.88-.66,5.45.6,10.09-.87,4.84-1.53,10.88-5.34,13.07-10.11a7.15,7.15,0,0,0-.2-7.08" transform="translate(-53.01 -106.81)" fill="none" stroke="#000" stroke-miterlimit="10"/>
    <path d="M172.41,140.36c9.73-11.2,16.57-14.46,21.14-15.24,3.88-.66,5.45.6,10.09-.87,4.84-1.53,10.88-5.34,13.07-10.11a7.15,7.15,0,0,0-.2-7.08" transform="translate(-53.01 -106.81)" fill="none" stroke="#000" stroke-miterlimit="10"/>
    <path d="M241.19,197.78a19.15,19.15,0,0,0-2.18,1.79" transform="translate(-53.01 -106.81)" fill="none" stroke="#000" stroke-miterlimit="10"/>
    <path d="M246.21,203.78a14.58,14.58,0,0,1-3.54,2.29" transform="translate(-53.01 -106.81)" fill="none" stroke="#000" stroke-miterlimit="10"/>
    <path d="M222,209.59l-1.32.65-3.08,1.52-.62.31-2.57,1.27" transform="translate(-53.01 -106.81)" fill="none" stroke="#000" stroke-miterlimit="10"/>
    <path d="M207.36,196.7a4.57,4.57,0,0,1-.4,1.43,23.85,23.85,0,0,0-1.23,4.41" transform="translate(-53.01 -106.81)" fill="none" stroke="#000" stroke-miterlimit="10"/>
    <path d="M213.12,177.42q-.91,3.48-1.92,6.92" transform="translate(-53.01 -106.81)" fill="none" stroke="#000" stroke-miterlimit="10"/>
  </symbol>
  
  <symbol id="wine_glass" data-name="Layer 1" xmlns="http://www.w3.org/2000/svg" viewBox="0 0 136.57 320.5">
    <title>wineglass</title>
    <path d="M29.5,82.5" transform="translate(-187.43 -120.5)" fill="#fff" stroke="#000" stroke-miterlimit="10"/>
    <path d="M246.34,383.18a4,4,0,0,1-.21-1c-32.89,2-58.19,14.24-58.19,29,0,16.19,30.35,29.32,67.78,29.32s67.78-13.13,67.78-29.32c0-14.94-25.84-27.27-59.24-29.09a4.44,4.44,0,0,1,.34,2.28" transform="translate(-187.43 -120.5)" fill="none" stroke="#000" stroke-miterlimit="10"/>
    <path d="M293.85,124.84A4.86,4.86,0,0,0,289.1,121H222.66a4.85,4.85,0,0,0-3.05,1.08,4.92,4.92,0,0,0-1.7,2.76l-8.6,40.23-10,46.75a48.56,48.56,0,0,0,44.07,48.35,594.23,594.23,0,0,1,5.41,81.4c0,18.85-2.21,36.5-4.68,52.82l22.73.8c-2.71-16.54-5.2-34.47-5.24-53.62A594.21,594.21,0,0,1,267,260.27a48.56,48.56,0,0,0,45.47-48.45Z" transform="translate(-187.43 -120.5)" fill="none" stroke="#000" stroke-miterlimit="10"/>
    <path d="M430.5,279.5" transform="translate(-187.43 -120.5)" fill="#fff" stroke="#000" stroke-miterlimit="10"/>
    <path d="M205.4,185.94c15.36,5.41,47.39,14.14,82,3.69a110.63,110.63,0,0,0,18.76-7.6" transform="translate(-187.43 -120.5)" fill="none" stroke="#000" stroke-miterlimit="10"/>
  </symbol>
  
  
	<symbol id="coke-bottle" data-name="Layer 1" xmlns="http://www.w3.org/2000/svg" viewBox="0 0 728 2141">
		<title>cokebottle</title>
		<rect x="87" y="848" width="563" height="361"/>
		<polygon points="621.4,1687.54 613.71,1614.51 622.57,1464.48 669.47,1230 69.76,1230 113.97,1470.3 123.2,1624.83 116.06,1689.75 
			67.85,1864 69.76,1864 90.89,1994.9 646.38,1995.96 669.47,1860.97 669.48,1860.75 "/>
		<polygon points="625.03,2100.66 110.48,2100.28 90.91,2014 646.42,2014 "/>
		<polygon points="574.45,564 502.86,300 502.48,300 479.62,121 255.62,121 239.68,300 239.42,300 167.81,565 167.02,565 72.37,828 
			664.96,828 "/>
		<polygon points="498.66,104 238.66,104 284.44,29 452.89,29 "/>
	</symbol>










</svg>
