<svg id="Layer_1" data-name="Layer 1" xmlns="http://www.w3.org/2000/svg" viewBox="0 0 197.4 275.5">
  <title>redsolocup</title>
  <path d="M217,379v8l-.33,0H91.93a4,4,0,0,1-2.77-.86.65.65,0,0,1-.22-.41L89,379H217m1-1H88l-.11,7.71c0,1.26,1.77,2.29,4,2.29H216.67a1.71,1.71,0,0,0,1.33-.43h0V378Z" transform="translate(-55.3 -112.5)"/>
  <path d="M226.16,303a24.11,24.11,0,0,1,3.1.13l0,.08c-.05.15-.11.32-.17.5l0,.08v.08l-10.4,73.65c-.53.21-2.27.54-8,.54-1.33,0-2.64,0-3.83,0l-2.57,0H102.9c-5.46,0-14.59-.65-16.28-1.47l-9.45-72.66v-.08l0-.08a4.39,4.39,0,0,1-.12-.45,16.75,16.75,0,0,1,4-.26H226.16m0-1H81c-5.08,0-5.3.4-4.81,2l9.5,73c.43,1.39,12.79,2,17.23,2H204.25c1.6,0,4,.05,6.4.05,4.28,0,8.66-.16,8.93-1.05L230,304c.49-1.6,1.22-2-3.86-2Z" transform="translate(-55.3 -112.5)"/>
  <path d="M240,176c2.76,0,3.71.17,4,.32a6.15,6.15,0,0,1-.2,1c-.06.24-.13.51-.19.8v.11L231.23,301c-.31.28-1.87,1-9.61,1-1.57,0-3.14,0-4.53,0-1.15,0-2.19,0-3,0H93.89l-2.5,0-4,0c-9.8,0-11.93-.76-12.38-1.15L63.2,178.23v-.12c-.08-.37-.29-1.34-.12-1.55.3-.37,1.93-.57,4.85-.57H240m0-1H67.91c-6,0-6.28.67-5.7,3.32L74,301.15c.35,1.62,7.37,1.86,13.36,1.86,2.57,0,4.95,0,6.53,0H214c1.9,0,4.72.08,7.58.08,5.07,0,10.26-.27,10.59-1.75l12.38-123c.58-2.65,1.45-3.32-4.58-3.32Z" transform="translate(-55.3 -112.5)"/>
  <path d="M240,155c.9,0,2.44,0,3.51,0l-2.41,19.07c-.77,0-2.47.08-6.17.08-4.21,0-9.61-.05-13.95-.09-3,0-5.57-.05-7-.05H93.89l-7,.05c-4.52,0-10.14.09-14.55.09-3.9,0-5.65,0-6.45-.08l-2.6-19c1.23-.06,3.41-.06,4.62-.06H240m0-1H67.91c-6,0-6.28.11-5.7.55L65,175a65.15,65.15,0,0,0,7.33.18c7.39,0,18.17-.14,21.56-.14H214c3.38,0,13.78.14,20.9.14A60.59,60.59,0,0,0,242,175l2.59-20.45c.58-.44,1.45-.55-4.58-.55Z" transform="translate(-55.3 -112.5)"/>
  <path d="M67.91,135H240c.92,0,2.5,0,3.56,0L243,154.1c-.86,0-2.7.08-6.67.08-4.63,0-10.52-.05-15.25-.09L214,154H93.89l-7.12,0c-4.91,0-11,.09-15.86.09-4.16,0-6.07,0-6.95-.08l-.68-18.87c1.35-.15,3.82-.21,4.59-.23h0M240,134H67.91c.07,0-3.5.06-5,.28a.7.7,0,0,0-.59.79L63,155a75.63,75.63,0,0,0,7.91.18c8,0,19.59-.14,23-.14H214c3.38,0,14.61.14,22.32.14A70.71,70.71,0,0,0,244,155l.59-20.45c.58-.44,1.45-.55-4.58-.55Z" transform="translate(-55.3 -112.5)"/>
  <path d="M245,129v3.7a1.38,1.38,0,0,1-1.36,1.38c-4.21,0-14.27.07-28.33.07h-123c-8.66,0-24.07,0-30-.07A1.38,1.38,0,0,1,61,132.68v-3.6c1.43-.05,3.93-.07,4.71-.08H241.9l3.1,0m1-1c-.62,0-1.83,0-4.11,0H65.77c.07,0-3.58,0-5.16.09-.39,0-.65.14-.6.27v4.31a2.38,2.38,0,0,0,2.35,2.38c6.68.07,25.56.07,30,.07h123c4.42,0,21.94,0,28.34-.07a2.38,2.38,0,0,0,2.35-2.38V128h0v0Z" transform="translate(-55.3 -112.5)"/>
  <path d="M247,120v5.64c0,1.38-.74,2.35-1.4,2.36-4.27.07-14.49.1-28.78.1H91.87c-8.8,0-24.45,0-30.47-.11-.66,0-1.4-1-1.4-2.36v-5.5c1.44-.07,4-.1,4.81-.11h179c1.43,0,2.45,0,3.17,0m1-1c-.63,0-1.86.05-4.18.05h-179c.07,0-3.64,0-5.24.13-.39,0-.67.2-.61.38v6.1c0,1.84,1.06,3.34,2.39,3.36,6.79.1,26,.11,30.49.11H216.81c4.49,0,22.29,0,28.79-.1,1.32,0,2.39-1.52,2.39-3.36v-6.61h0V119Z" transform="translate(-55.3 -112.5)"/>
  <path d="M245.27,119.5H62.73c-2.47,0-4.61-.62-5.15-1.49l-1.66-2.69c-.73-1.19,1.77-2.32,5.15-2.32H246.93c3.37,0,5.88,1.13,5.15,2.32L250.42,118C249.88,118.88,247.74,119.5,245.27,119.5Z" transform="translate(-55.3 -112.5)" fill="#fff" stroke="#000" stroke-miterlimit="10"/>
</svg>
