<svg id="Layer_1" data-name="Layer 1" xmlns="http://www.w3.org/2000/svg" viewBox="0 0 141.43 389.7">
  <title>smoothie</title>
  <path d="M222.56,185.26a111.31,111.31,0,0,0,15.64,8.31s44.75,19.32,94.22.17c5.3-2.05,10.17-4.58,10.17-4.58,2.57-1.33,4.69-2.57,6.26-3.54" transform="translate(-221.96 -59.3)" fill="none" stroke="#000" stroke-miterlimit="10"/>
  <path d="M223.26,192.22a111.31,111.31,0,0,0,15.64,8.31s44.75,19.32,94.22.17c5.3-2.05,10.17-4.58,10.17-4.58,2.57-1.33,4.69-2.57,6.26-3.54" transform="translate(-221.96 -59.3)" fill="none" stroke="#000" stroke-miterlimit="10"/>
  <path d="M284.85,420.78" transform="translate(-221.96 -59.3)" fill="none" stroke="#000" stroke-miterlimit="10"/>
  <path d="M282.89,420.2" transform="translate(-221.96 -59.3)" fill="none" stroke="#000" stroke-miterlimit="10"/>
  <path d="M276.41,419.68" transform="translate(-221.96 -59.3)" fill="none" stroke="#000" stroke-miterlimit="10"/>
  <path d="M300.55,421.68a22.22,22.22,0,0,1,0-26.12H271.64a22.34,22.34,0,0,1,0,26.12" transform="translate(-221.96 -59.3)" fill="none" stroke="#000" stroke-miterlimit="10"/>
  <path d="M295.31,419.63" transform="translate(-221.96 -59.3)" fill="none" stroke="#000" stroke-miterlimit="10"/>
  <path d="M291.68,420.61" transform="translate(-221.96 -59.3)" fill="none" stroke="#000" stroke-miterlimit="10"/>
  <path d="M287,420" transform="translate(-221.96 -59.3)" fill="none" stroke="#000" stroke-miterlimit="10"/>
  <path d="M276.21,404.3c-26,1.9-45.66,11-45.66,21.91,0,12.31,24.95,22.29,55.72,22.29s55.72-10,55.72-22.29c0-10.82-19.29-19.82-44.86-21.84" transform="translate(-221.96 -59.3)" fill="none" stroke="#000" stroke-miterlimit="10"/>
  <path d="M356.5,65.5c-2.89-.88-3.55-6.39-4.43-3.5l-30.26,99.26A141.21,141.21,0,0,0,286.27,157c-35.2,0-63.73,11.23-63.73,25.08a10.41,10.41,0,0,0,.61,3.48h-.61l26.66,200.59a10.45,10.45,0,0,0,10.36,9.07H313a10.45,10.45,0,0,0,10.36-9.07L350,185.56h-.61a10.41,10.41,0,0,0,.61-3.48c0-6.74-6.76-12.85-17.75-17.35l30.34-99.51C363.47,62.32,359.39,66.38,356.5,65.5Z" transform="translate(-221.96 -59.3)" fill="none" stroke="#000" stroke-miterlimit="10"/>
  <path d="M362.23,65.79c1.62-2.23.05-3.07-2.53-5-3.2-2.34-6.92,0-7.7.17" transform="translate(-221.96 -59.3)" fill="none" stroke="#000" stroke-miterlimit="10"/>
  <path d="M236.06,192.15c-.35-3.46-.52-7.45,2-9.88,1.9-1.85,4.76-2.16,7.3-2.9,4.37-1.26,8.16-3.95,12.23-6s8.85-3.42,13.13-1.89a4.36,4.36,0,0,0,1.9.43c2.08-.23,2.09-3.22,3.06-5.08s3.27-2.7,5.38-3a19,19,0,0,1,8.68.86,16.33,16.33,0,0,0,4.76,1.33,12.66,12.66,0,0,0,3.89-.77,30.67,30.67,0,0,1,13.34-1.38c4.46.69,8.81,3,11.19,6.84,2.14,3.44,2.5,7.65,2.8,11.69" transform="translate(-221.96 -59.3)" fill="none" stroke="#000" stroke-miterlimit="10"/>
</svg>
