<svg id="Layer_1" data-name="Layer 1" xmlns="http://www.w3.org/2000/svg" viewBox="0 0 210.63 199.24">
  <title>tea</title>
  <path d="M98.71,181.3c-21.16,9.46-42.06,26.79-44.9,51.23-2.95,25.33,16,46,36.7,57.37C113.85,302.74,141.62,307.15,168,305c25.24-2,51.67-10.2,70.65-27.6,8.88-8.14,15.94-18.56,18.44-30.48s-.14-24.12-6.31-34.47a59.6,59.6,0,0,0-5.28-7.46" transform="translate(-53.01 -106.81)" fill="none" stroke="#000" stroke-miterlimit="10"/>
  <path d="M207.67,200.32" transform="translate(-53.01 -106.81)" fill="none" stroke="#000" stroke-miterlimit="10"/>
  <path d="M104.73,200.45c-12.78,10.27-21.38,26.37-19.07,43,2.27,16.33,14.17,29.47,28.07,37.42,16,9.13,35.08,12.28,53.26,10.19,17-2,34-8.62,46.14-20.9S230.87,240.1,225,223.57a45.08,45.08,0,0,0-2.83-6.39" transform="translate(-53.01 -106.81)" fill="none" stroke="#000" stroke-miterlimit="10"/>
  <path d="M219.73,144.13" transform="translate(-53.01 -106.81)" fill="none" stroke="#000" stroke-miterlimit="10"/>
  <path d="M213,177.83c3.77-12.7,7.61-25.37,11.38-38.07a6.08,6.08,0,0,0-.25.61c.11-.17.15-.46.25-.61a3.26,3.26,0,0,0-1.17,0" transform="translate(-53.01 -106.81)" fill="none" stroke="#000" stroke-miterlimit="10"/>
  <path d="M207.14,197.95q2-7,4-13.9" transform="translate(-53.01 -106.81)" fill="none" stroke="#000" stroke-miterlimit="10"/>
  <path d="M195.11,248.8c-.74-16.32,7.26-31.22,10.82-46.77" transform="translate(-53.01 -106.81)" fill="none" stroke="#000" stroke-miterlimit="10"/>
  <path d="M115.34,248.8h79.77" transform="translate(-53.01 -106.81)" fill="none" stroke="#000" stroke-miterlimit="10"/>
  <path d="M99.14,184.61c5.22,18.08,11.81,34.91,16.2,53.94.73,3.66,0,6.59,0,10.25" transform="translate(-53.01 -106.81)" fill="none" stroke="#000" stroke-miterlimit="10"/>
  <path d="M86.85,139.76a3.61,3.61,0,0,0-.78,0C90,153,93.55,166.34,97.58,179.55" transform="translate(-53.01 -106.81)" fill="none" stroke="#000" stroke-miterlimit="10"/>
  <path d="M240.73,198.21c5.35-4.5,11.24-13.14,7.46-20.38-4.09-7.84-16.48-8.65-24-7.85" transform="translate(-53.01 -106.81)" fill="none" stroke="#000" stroke-miterlimit="10"/>
  <path d="M222,209.54c5.92-3.16,12-6.11,17.36-10.21" transform="translate(-53.01 -106.81)" fill="none" stroke="#000" stroke-miterlimit="10"/>
  <path d="M211.94,214.77a15,15,0,0,1,2.86-1.66" transform="translate(-53.01 -106.81)" fill="none" stroke="#000" stroke-miterlimit="10"/>
  <path d="M155.22,120c-38.19,0-69.16,9-69.16,20.12s31,20.12,69.16,20.12,69.16-9,69.16-20.12S193.42,120,155.22,120Zm64.51,24.13M90.36,136.52" transform="translate(-53.01 -106.81)" fill="none" stroke="#000" stroke-miterlimit="10"/>
  <path d="M245.93,203.87c8.43-5.72,14.82-13.52,16.81-23.76,2.81-14.43-10-19.47-21.67-21.82A70.61,70.61,0,0,0,219.62,157" transform="translate(-53.01 -106.81)" fill="none" stroke="#000" stroke-miterlimit="10"/>
  <path d="M198.4,227.94c3.19-2.46,7.66-3.8,11.3-5.43,7.06-3.15,14.11-6.34,21-9.85,4.1-2.09,8.15-4.3,12.06-6.73" transform="translate(-53.01 -106.81)" fill="none" stroke="#000" stroke-miterlimit="10"/>
  <path d="M145.41,140.36c9.73-11.2,16.57-14.46,21.14-15.24,3.88-.66,5.45.6,10.09-.87,4.84-1.53,10.88-5.34,13.07-10.11a7.15,7.15,0,0,0-.2-7.08" transform="translate(-53.01 -106.81)" fill="none" stroke="#000" stroke-miterlimit="10"/>
  <path d="M172.41,140.36c9.73-11.2,16.57-14.46,21.14-15.24,3.88-.66,5.45.6,10.09-.87,4.84-1.53,10.88-5.34,13.07-10.11a7.15,7.15,0,0,0-.2-7.08" transform="translate(-53.01 -106.81)" fill="none" stroke="#000" stroke-miterlimit="10"/>
  <path d="M241.19,197.78a19.15,19.15,0,0,0-2.18,1.79" transform="translate(-53.01 -106.81)" fill="none" stroke="#000" stroke-miterlimit="10"/>
  <path d="M246.21,203.78a14.58,14.58,0,0,1-3.54,2.29" transform="translate(-53.01 -106.81)" fill="none" stroke="#000" stroke-miterlimit="10"/>
  <path d="M222,209.59l-1.32.65-3.08,1.52-.62.31-2.57,1.27" transform="translate(-53.01 -106.81)" fill="none" stroke="#000" stroke-miterlimit="10"/>
  <path d="M207.36,196.7a4.57,4.57,0,0,1-.4,1.43,23.85,23.85,0,0,0-1.23,4.41" transform="translate(-53.01 -106.81)" fill="none" stroke="#000" stroke-miterlimit="10"/>
  <path d="M213.12,177.42q-.91,3.48-1.92,6.92" transform="translate(-53.01 -106.81)" fill="none" stroke="#000" stroke-miterlimit="10"/>
</svg>
