<svg id="Layer_1" data-name="Layer 1" xmlns="http://www.w3.org/2000/svg" viewBox="0 0 136.57 320.5">
  <title>wineglass</title>
  <path d="M29.5,82.5" transform="translate(-187.43 -120.5)" fill="#fff" stroke="#000" stroke-miterlimit="10"/>
  <path d="M246.34,383.18a4,4,0,0,1-.21-1c-32.89,2-58.19,14.24-58.19,29,0,16.19,30.35,29.32,67.78,29.32s67.78-13.13,67.78-29.32c0-14.94-25.84-27.27-59.24-29.09a4.44,4.44,0,0,1,.34,2.28" transform="translate(-187.43 -120.5)" fill="none" stroke="#000" stroke-miterlimit="10"/>
  <path d="M293.85,124.84A4.86,4.86,0,0,0,289.1,121H222.66a4.85,4.85,0,0,0-3.05,1.08,4.92,4.92,0,0,0-1.7,2.76l-8.6,40.23-10,46.75a48.56,48.56,0,0,0,44.07,48.35,594.23,594.23,0,0,1,5.41,81.4c0,18.85-2.21,36.5-4.68,52.82l22.73.8c-2.71-16.54-5.2-34.47-5.24-53.62A594.21,594.21,0,0,1,267,260.27a48.56,48.56,0,0,0,45.47-48.45Z" transform="translate(-187.43 -120.5)" fill="none" stroke="#000" stroke-miterlimit="10"/>
  <path d="M430.5,279.5" transform="translate(-187.43 -120.5)" fill="#fff" stroke="#000" stroke-miterlimit="10"/>
  <path d="M205.4,185.94c15.36,5.41,47.39,14.14,82,3.69a110.63,110.63,0,0,0,18.76-7.6" transform="translate(-187.43 -120.5)" fill="none" stroke="#000" stroke-miterlimit="10"/>
</svg>
